HIERARCHY
ROOT Hips
{
	OFFSET 0.00000 0.00000 0.00000
	CHANNELS 6 Xposition Yposition Zposition Zrotation Yrotation Xrotation 
	JOINT LHipJoint
	{
		OFFSET 0 0 0
		CHANNELS 3 Zrotation Yrotation Xrotation
		JOINT LeftHip
		{
			OFFSET 1.57338 -1.94743 0.52196
			CHANNELS 3 Zrotation Yrotation Xrotation
			JOINT LeftKnee
			{
				OFFSET 2.60333 -7.15259 0.00000
				CHANNELS 3 Zrotation Yrotation Xrotation
				JOINT LeftAnkle
				{
					OFFSET 2.77855 -7.63400 0.00000
					CHANNELS 3 Zrotation Yrotation Xrotation
					JOINT LeftToe
					{
						OFFSET 0.19847 -0.54529 2.28466
						CHANNELS 3 Zrotation Yrotation Xrotation
						End Site
						{
							OFFSET 0.00000 -0.00000 1.17993
						}
					}
				}
			}
		}
	}
	JOINT RHipJoint
	{
		OFFSET 0 0 0
		CHANNELS 3 Zrotation Yrotation Xrotation
		JOINT RightHip
		{
			OFFSET -1.61527 -1.94743 0.52196
			CHANNELS 3 Zrotation Yrotation Xrotation
			JOINT RightKnee
			{
				OFFSET -2.53829 -6.97390 0.00000
				CHANNELS 3 Zrotation Yrotation Xrotation
				JOINT RightAnkle
				{
					OFFSET -2.80762 -7.71387 0.00000
					CHANNELS 3 Zrotation Yrotation Xrotation
					JOINT RightToe
					{
						OFFSET -0.30536 -0.83898 2.28801
						CHANNELS 3 Zrotation Yrotation Xrotation
						End Site
						{
							OFFSET -0.00000 -0.00000 1.21323
						}
					}
				}
			}
		}
	}
	JOINT lowerback
	{
		OFFSET 0 0 0
		CHANNELS 3 Zrotation Yrotation Xrotation
		JOINT Chest
		{
			OFFSET -0.04381 1.99497 -0.19778
			CHANNELS 3 Zrotation Yrotation Xrotation
			JOINT Chest2
			{
				OFFSET -0.01959 2.01295 -0.04372
				CHANNELS 3 Zrotation Yrotation Xrotation
				JOINT lowerneck
				{
					OFFSET 0 0 0
					CHANNELS 3 Zrotation Yrotation Xrotation
					JOINT Neck
					{
						OFFSET -0.05459 1.76913 0.09708
						CHANNELS 3 Zrotation Yrotation Xrotation
						JOINT Head
						{
							OFFSET 0.09461 1.77368 -0.11172
							CHANNELS 3 Zrotation Yrotation Xrotation
							End Site
							{
								OFFSET 0.03812 1.78157 -0.04834
							}
						}
					}
				}
				JOINT LeftCollar
				{
					OFFSET 0 0 0
					CHANNELS 3 Zrotation Yrotation Xrotation
					JOINT LeftShoulder
					{
						OFFSET 3.50922 1.24034 -0.28866
CHANNELS 3 Zrotation Xrotation Yrotation
						JOINT LeftElbow
						{
OFFSET 0 -5.401880 0.000000
CHANNELS 3 Zrotation Xrotation Yrotation
							JOINT LeftWrist
							{
OFFSET 0 -3.685590 0.000000
CHANNELS 3 Zrotation Xrotation Yrotation
								JOINT lhand
								{
									OFFSET 0 0 0
CHANNELS 3 Zrotation Xrotation Yrotation
									JOINT LFingers
									{
OFFSET 0 -0.617530 0.000000
CHANNELS 3 Zrotation Xrotation Yrotation
										End Site
										{
OFFSET 0 -0.497870 0.000000
										}
									}
								}
								JOINT LThumb
								{
OFFSET 0 0.000000 0.000000
CHANNELS 3 Zrotation Xrotation Yrotation
									End Site
									{
OFFSET 0 -0.505470 0.505470
									}
								}
							}
						}
					}
				}
				JOINT RightCollar
				{
					OFFSET 0 0 0
					CHANNELS 3 Zrotation Yrotation Xrotation
					JOINT RightShoulder
					{
						OFFSET -2.95373 1.39649 -0.27346
CHANNELS 3 Zrotation Xrotation Yrotation
						JOINT RightElbow
						{
OFFSET 0 -6.106700 -0.000000
CHANNELS 3 Zrotation Xrotation Yrotation
							JOINT RightWrist
							{
OFFSET 0 -3.630520 0.000000
CHANNELS 3 Zrotation Xrotation Yrotation
								JOINT rhand
								{
									OFFSET 0 0 0
CHANNELS 3 Zrotation Xrotation Yrotation
									JOINT RFingers
									{
OFFSET 0 -0.583850 0.000000
CHANNELS 3 Zrotation Xrotation Yrotation
										End Site
										{
OFFSET 0 -0.470710 0.000000
										}
									}
								}
								JOINT RThumb
								{
OFFSET 0 0.000000 0.000000
CHANNELS 3 Zrotation Xrotation Yrotation
									End Site
									{
OFFSET 0 -0.477900 0.477900
									}
								}
							}
						}
					}
				}
			}
		}
	}
}
MOTION
Frames: 12
Frame Time: 0.008333333333333333
11.753600 18.712300 5.277100 0.489100 -24.929300 -0.874200 0.000000 0.000000 0.000000 -22.510500 -5.540700 -3.616200 1.565800 7.896100 22.398800 0.748600 10.857600 -23.657300 0.003200 0.367300 1.009300 0.000000 0.000000 0.000000 15.638900 19.790100 -1.924400 -1.851300 -8.549300 24.395400 -0.531500 -11.510000 -22.349600 -0.003700 0.390300 -1.072500 -4.435300 -0.840900 4.681400 -1.553200 -1.355800 1.463200 0.963600 -0.680600 -1.053400 -7.674500 -4.372900 -8.341700 8.940600 -6.462100 16.453700 3.598400 -2.909300 6.921900 -0.000000 -0.000000 0.000000 5.381200 0.135900 -2.407400 10.978000 -18.254600 1.769000 24.394500 25.814500 -19.461800 0.000000 0.000000 0.000000 -7.125000 0.000000 0.000000 -3.970300 51.144300 0.601800 -0.000000 -0.000000 0.000000 -6.885600 9.935100 19.259700 -15.580800 -24.949000 -3.467200 -27.447700 11.431200 -5.193300 0.000000 0.000000 0.000000 7.125000 0.000000 -0.000000 -0.569200 24.132100 -0.286700
11.747067 18.701824 5.325713 0.079706 -24.186753 -1.124951 0.000000 0.000000 0.000000 -22.179586 -5.538157 -3.272372 1.623374 8.033040 22.814417 0.764794 10.563640 -23.524076 0.000774 -0.042184 -0.115844 0.000000 0.000000 0.000000 16.182087 19.038726 -1.275053 -1.827668 -8.497542 24.235811 -0.538681 -11.644092 -22.559430 -0.013003 0.729224 -2.004091 -3.976960 -0.731059 4.521173 -1.424501 -1.181306 1.315604 0.829295 -0.589812 -1.130989 -7.183304 -4.283169 -8.939922 7.698563 -6.285980 18.408493 3.127006 -2.867354 7.591896 0.000000 0.000000 0.000000 5.113233 -0.141500 -2.638242 10.626979 -17.714258 1.660701 24.257191 25.987703 -19.680445 0.000000 0.000000 0.000000 -7.125000 0.000000 0.000000 -4.164191 51.353420 0.652609 0.000000 0.000000 0.000000 -7.005483 10.260311 19.517319 -15.712938 -25.129817 -3.523152 -25.615255 11.533297 -4.327965 0.000000 0.000000 0.000000 7.125000 0.000000 0.000000 0.775902 25.182139 0.372058
11.747057 18.692625 5.380857 0.696957 -23.332919 -1.699682 0.000000 0.000000 0.000000 -22.868264 -5.344526 -2.682299 1.583255 7.938026 22.525931 0.796141 9.873662 -23.175359 0.003467 0.250127 0.687451 0.000000 0.000000 0.000000 15.480094 17.929148 -0.994454 -1.867390 -8.584222 24.503250 -0.623929 -11.208991 -22.894890 -0.016658 0.833840 -2.291674 -4.244313 -0.619680 3.986951 -1.748892 -1.018362 1.342043 0.629540 -0.514381 -0.813643 -6.716931 -4.130615 -9.552115 7.070026 -6.067315 19.583894 2.859982 -2.765202 8.038661 0.000000 0.000000 0.000000 5.158321 -0.724679 -2.367412 10.097420 -16.891816 1.503123 25.104880 27.622152 -19.301245 0.000000 0.000000 0.000000 -7.125000 0.000000 0.000000 -3.219174 51.096243 0.483978 0.000000 0.000000 0.000000 -6.658168 10.224419 19.397527 -16.091195 -25.644038 -3.685395 -25.493721 11.572217 -3.898534 0.000000 0.000000 0.000000 7.125000 0.000000 0.000000 0.859594 25.662196 0.402620
11.769536 18.698573 5.390677 0.513298 -22.905275 -1.548521 0.000000 0.000000 0.000000 -22.780181 -5.468103 -2.687294 1.564528 7.893047 22.389714 0.762196 9.912270 -22.911864 0.000473 0.111236 0.305690 0.000000 0.000000 0.000000 15.398375 17.579933 -1.788414 -2.015097 -8.897358 25.474751 -0.649460 -10.838799 -22.763505 -0.018523 0.878868 -2.415551 -4.077358 -0.498376 3.890087 -1.755606 -0.851537 1.147152 0.522362 -0.425907 -0.969525 -7.198663 -3.452172 -8.562862 8.457180 -5.299821 18.386637 3.487079 -2.341647 7.453018 0.000000 0.000000 0.000000 4.842915 -1.422380 -1.092082 9.492833 -15.942321 1.332303 26.438244 29.436746 -18.463765 0.000000 0.000000 0.000000 -7.125000 0.000000 0.000000 -1.698326 50.422154 0.227040 0.000000 0.000000 0.000000 -6.584023 9.840262 19.635529 -16.396202 -26.054895 -3.818292 -25.485410 11.434337 -3.447226 0.000000 0.000000 0.000000 7.125000 0.000000 0.000000 0.859175 26.161794 0.392283
11.797470 18.715297 5.380137 0.483850 -24.137921 -1.759179 0.000000 0.000000 0.000000 -23.158126 -6.140290 -1.714738 1.479627 7.685697 21.763333 0.725543 11.827539 -24.385515 0.000382 0.083203 0.228588 0.000000 0.000000 0.000000 15.247841 18.039905 -2.969829 -2.297207 -9.459418 27.243321 -0.552549 -10.199184 -21.230651 -0.059617 1.574061 -4.329935 -4.472395 0.000490 4.381273 -1.674767 -0.239969 0.957877 0.799241 -0.109374 -1.460550 -6.467364 -2.880992 -8.873580 8.407309 -4.595498 18.347934 3.411585 -1.951153 7.416868 0.000000 0.000000 0.000000 4.302947 -1.773132 -0.047323 8.854081 -14.927616 1.162267 25.884616 30.683999 -19.505773 0.000000 0.000000 0.000000 -7.125000 0.000000 0.000000 -2.483095 51.454417 0.394825 0.000000 0.000000 0.000000 -6.758464 9.300742 20.099136 -16.677986 -26.431340 -3.942934 -25.170305 11.554395 -3.223328 0.000000 0.000000 0.000000 7.125000 0.000000 0.000000 1.096263 26.418737 0.493939
11.856794 18.757007 5.315056 -0.839247 -26.444098 -1.067666 0.000000 0.000000 0.000000 -22.042933 -5.775914 -2.209837 1.513119 7.768205 22.012308 0.698574 13.397486 -25.735746 0.001106 0.213986 0.588008 0.000000 0.000000 0.000000 16.108251 19.276485 -4.828179 -2.534806 -9.900832 28.656259 -0.396885 -9.285403 -18.690678 -0.173903 2.686031 -7.405949 -4.032610 0.330022 5.195948 -1.220767 0.176678 0.744984 0.993464 0.112184 -2.155159 -5.933467 -2.259171 -9.238797 9.108054 -3.909413 17.876334 3.610183 -1.523405 7.275023 0.000000 0.000000 0.000000 3.598167 -1.472213 0.450999 8.415842 -14.224671 1.051934 26.911359 31.041928 -18.608053 0.000000 0.000000 0.000000 -7.125000 0.000000 0.000000 -1.254252 50.661165 0.175175 0.000000 0.000000 0.000000 -7.160105 8.092650 21.031910 -17.131627 -27.030956 -4.146924 -25.155500 11.879672 -3.176821 0.000000 0.000000 0.000000 7.125000 0.000000 0.000000 1.106864 26.470540 0.497562
11.923853 18.782090 5.233175 -2.198863 -28.918258 -0.377181 0.000000 0.000000 0.000000 -21.051766 -6.310962 -2.440947 1.584270 7.940330 22.533116 0.729389 15.160618 -27.812375 0.053090 1.486992 4.089977 0.000000 0.000000 0.000000 16.736988 20.221940 -5.569891 -2.487632 -9.815373 28.380865 -0.287501 -7.281278 -15.316980 -0.082176 1.846860 -5.082737 -4.112522 0.177212 6.143047 -0.743653 -0.062551 1.000153 1.546962 -0.003952 -2.409629 -4.721003 -1.780143 -10.044118 9.205670 -3.344705 16.585809 3.466406 -1.162196 6.941743 0.000000 0.000000 0.000000 2.804833 -0.651267 -0.397701 8.657873 -14.613514 1.112271 26.906371 29.409721 -19.322860 0.000000 0.000000 0.000000 -7.125000 0.000000 0.000000 -1.408620 51.439491 0.223901 0.000000 0.000000 0.000000 -7.621143 6.340192 22.616804 -18.309859 -28.551930 -4.696535 -24.691194 11.293450 -3.196797 0.000000 0.000000 0.000000 7.125000 0.000000 0.000000 1.460768 26.461554 0.656863
12.001657 18.816176 5.136265 -3.292530 -31.775293 0.548429 0.000000 0.000000 0.000000 -20.432401 -7.202248 -2.478418 1.564161 7.892317 22.387393 0.814750 17.198980 -30.582742 0.083424 1.840367 5.065405 0.000000 0.000000 0.000000 16.708509 21.732797 -5.876004 -2.214272 -9.298558 26.734026 -0.257956 -4.652893 -12.454153 -0.101330 2.048058 -5.638649 -4.274225 0.034808 6.973495 -0.456199 -0.297047 1.104771 1.957029 -0.113754 -2.749560 -4.719455 -1.861450 -9.516977 10.266147 -3.524667 14.892076 3.773229 -1.211305 6.342712 0.000000 0.000000 0.000000 2.291499 0.297724 -1.713962 8.551918 -14.443389 1.085755 27.824283 28.678015 -19.049732 0.000000 0.000000 0.000000 -7.125000 0.000000 0.000000 -0.420154 51.306964 0.065228 0.000000 0.000000 0.000000 -7.879020 5.565822 23.886190 -20.383979 -31.101647 -5.728643 -24.893371 10.080645 -2.537902 0.000000 0.000000 0.000000 7.125000 0.000000 0.000000 1.303353 27.181766 0.564204
12.082767 18.849766 5.070323 -4.256477 -35.122073 1.658905 0.000000 0.000000 0.000000 -20.002768 -7.719817 -2.654980 1.534112 7.819609 22.167511 1.068703 18.767281 -33.814358 0.316172 3.613030 9.990638 0.000000 0.000000 0.000000 16.299711 23.116988 -5.565083 -1.789969 -8.413784 23.978275 -0.264764 -0.979212 -10.132247 -0.199244 2.874107 -7.928518 -4.202840 -0.104383 7.365618 -0.294483 -0.490263 1.223223 2.104622 -0.210757 -2.832340 -5.027776 -2.664354 -9.633250 10.797495 -4.666432 14.752503 3.895198 -1.744512 6.432294 0.000000 0.000000 0.000000 2.127369 -0.041216 -0.165569 7.722252 -13.101619 0.888110 27.602747 32.755682 -20.056073 0.000000 0.000000 0.000000 -7.125000 0.000000 0.000000 -0.858004 52.366806 0.159223 0.000000 0.000000 0.000000 -8.003621 5.108437 24.203215 -22.143163 -33.138043 -6.664098 -25.475124 9.105744 -2.234195 0.000000 0.000000 0.000000 7.125000 0.000000 0.000000 0.855286 27.504840 0.363481
12.135795 18.863901 5.010164 -4.902461 -38.601683 2.710163 0.000000 0.000000 0.000000 -19.568744 -6.398427 -3.473722 1.473891 7.671277 21.720026 1.226838 19.566064 -35.529439 0.422215 4.167624 11.549222 0.000000 0.000000 0.000000 15.760793 24.326678 -5.431593 -1.492312 -7.717197 21.858324 -0.398303 3.040024 -11.264522 -0.597410 4.946185 -13.755553 -4.348532 -0.291066 7.304212 -0.229464 -0.746521 1.175033 2.277733 -0.336123 -2.827937 -5.624850 -3.752596 -9.239974 10.882773 -6.221473 15.790565 3.894492 -2.520587 6.846551 0.000000 0.000000 0.000000 2.256535 -0.643757 5.030380 6.688977 -11.406106 0.668934 27.281253 40.447697 -20.605878 0.000000 0.000000 0.000000 -7.125000 0.000000 0.000000 -1.313164 52.905386 0.256819 0.000000 0.000000 0.000000 -8.091575 5.405330 24.602816 -23.434528 -34.560544 -7.383369 -23.827254 8.323354 -2.039749 0.000000 0.000000 0.000000 7.125000 0.000000 0.000000 2.124756 27.748184 0.891666
12.150805 18.861875 4.973058 -5.571646 -42.141409 3.210873 0.000000 0.000000 0.000000 -19.386167 -5.942658 -3.562582 1.559216 7.880234 22.350869 1.876044 19.692293 -38.985797 0.719011 5.418463 15.106110 0.000000 0.000000 0.000000 16.013343 23.717297 -4.620920 -1.330917 -7.305540 20.623883 -0.538674 2.460313 -13.240491 -0.569873 4.834727 -13.437806 -4.055844 -0.593431 6.904364 -0.222085 -1.101482 1.450788 2.144637 -0.531509 -2.299789 -6.313548 -5.098159 -8.600875 10.016360 -8.046980 17.604809 3.566499 -3.503374 7.472900 0.000000 0.000000 0.000000 2.647208 -1.867047 12.362788 5.509428 -9.441561 0.455339 24.933881 46.653139 -20.575960 0.000000 0.000000 0.000000 -7.125000 0.000000 0.000000 -3.718306 52.430870 0.680795 0.000000 0.000000 0.000000 -8.322830 5.572964 25.002127 -23.836618 -34.990987 -7.612648 -25.290072 8.353185 -2.734799 0.000000 0.000000 0.000000 7.125000 0.000000 0.000000 1.000900 26.954982 0.437812
12.173783 18.865634 4.856905 -4.970704 -45.346026 3.213664 0.000000 0.000000 0.000000 -19.912388 -5.315487 -3.811921 1.456318 7.627602 21.588673 2.150240 20.464725 -40.965276 0.866309 5.934773 16.595239 0.000000 0.000000 0.000000 15.367114 21.835074 -6.119074 -1.642399 -8.077509 22.949926 -0.778158 -3.331871 -18.202723 -0.484733 4.464496 -12.387340 -4.788325 -0.851392 7.076968 -0.452407 -1.518138 1.355238 2.357578 -0.730311 -2.453965 -6.899201 -6.424742 -7.204082 8.723235 -9.814948 19.294954 3.088545 -4.523932 7.898971 0.000000 0.000000 0.000000 3.665853 -2.901641 16.076155 4.970010 -8.533829 0.371021 24.670758 52.754128 -21.195478 0.000000 0.000000 0.000000 -7.125000 0.000000 0.000000 -4.161146 53.041978 0.824681 0.000000 0.000000 0.000000 -8.345873 5.650704 24.982384 -22.920568 -34.001756 -7.093879 -24.772034 9.544883 -1.224082 0.000000 0.000000 0.000000 7.125000 0.000000 0.000000 1.399817 28.630579 0.558063
